<svg xmlns="http://www.w3.org/2000/svg" xmlns:xlink="http://www.w3.org/1999/xlink" width="22" height="11" viewBox="0 0 22 11">
  <defs>
    <rect id="waves-pattern-white-a" width="22" height="22"/>
  </defs>
  <g fill="none" fill-rule="evenodd" transform="translate(0 -10)">
    <mask id="waves-pattern-white-b" fill="#fff">
      <use xlink:href="#waves-pattern-white-a"/>
    </mask>
    <path fill="#FFF" d="M22.2129855,20.0112716 C21.3948549,20.6211152 20.4244189,21 19.2134906,21 C16.009066,21 14.4886604,18.349 13.0188019,15.7847778 C12.435663,14.7672202 11.8662802,13.7742522 11.2125045,12.9758747 C10.5591207,13.7742522 9.98998791,14.7672202 9.40684906,15.7847778 C7.93699057,18.349 6.41658491,21 3.21349057,21 C2.00205937,21 1.03131059,20.6211152 0.212985483,20.0112716 C-0.605145097,20.6211152 -1.57558111,21 -2.78650943,21 C-5.99093396,21 -7.51133962,18.349 -8.98119811,15.7847778 C-10.3260189,13.4381111 -11.5976792,11.2222222 -14,11.2222222 L-14,10 C-10.7942453,10 -9.27516981,12.651 -7.80398113,15.2152222 C-6.45916038,17.5618889 -5.18883019,19.7777778 -2.78650943,19.7777778 C-1.99719456,19.7777778 -1.33007424,19.5382987 -0.742331005,19.1334218 C-1.60788735,18.1802674 -2.29997147,16.9732027 -2.98119811,15.7847778 C-4.32601887,13.4381111 -5.59767925,11.2222222 -8,11.2222222 L-8,10 C-4.79424528,10 -3.27516981,12.651 -1.80398113,15.2152222 C-1.15892991,16.3408148 -0.531016718,17.4363193 0.212898868,18.2716347 C0.956667662,17.4363193 1.58458085,16.3408148 2.22963208,15.2152222 C3.63324326,12.7665709 5.08294791,10.2387877 8,10.0159047 L8,10 C9.31788669,10 10.3507188,10.4480281 11.2123552,11.1538708 C11.9793428,10.5254124 12.8818778,10.101337 14,10.0159047 L14,10 C17.2057547,10 18.7248302,12.651 20.1960189,15.2152222 C20.8410701,16.3408148 21.4689833,17.4363193 22.2128989,18.2716347 C22.9566677,17.4363193 23.5845809,16.3408148 24.2296321,15.2152222 C25.6332433,12.7665709 27.0829479,10.2387877 30,10.0159047 L30,11.2460191 C27.8682574,11.4904048 26.6704347,13.5798636 25.4068491,15.7847778 C24.7256497,16.9731552 24.0335937,18.1801709 23.1682182,19.1333074 C23.7561989,19.5382536 24.423664,19.7777778 25.2134906,19.7777778 C27.6144811,19.7777778 28.8848113,17.5618889 30.2296321,15.2152222 C31.6332433,12.7665709 33.0829479,10.2387877 36,10.0159047 L36,11.2460191 C33.8682574,11.4904048 32.6704347,13.5798636 31.4068491,15.7847778 C29.9369906,18.349 28.4165849,21 25.2134906,21 C24.0020594,21 23.0313106,20.6211152 22.2129855,20.0112716 Z M21.257669,19.1334218 C20.3921127,18.1802674 19.7000285,16.9732027 19.0188019,15.7847778 C17.6739811,13.4381111 16.4023208,11.2222222 14,11.2222222 L14,11.2460191 C13.2811653,11.3284273 12.6685241,11.6206338 12.123746,12.0563204 C12.9123232,12.9771709 13.5586648,14.1043399 14.1960189,15.2152222 C15.5408396,17.5618889 16.8111698,19.7777778 19.2134906,19.7777778 C20.0028054,19.7777778 20.6699258,19.5382987 21.257669,19.1334218 Z M8,11.2222222 L8,11.2460191 C5.86825737,11.4904048 4.67043473,13.5798636 3.40684906,15.7847778 C2.72564966,16.9731552 2.03359365,18.1801709 1.16821821,19.1333074 C1.75619887,19.5382536 2.42366404,19.7777778 3.21349057,19.7777778 C5.61448113,19.7777778 6.88481132,17.5618889 8.22963208,15.2152222 C8.86636013,14.1044267 9.51257355,12.977347 10.3009486,12.0565362 C9.65181292,11.5376561 8.90638174,11.2222222 8,11.2222222 Z" mask="url(#waves-pattern-white-b)"/>
  </g>
</svg>
