<svg xmlns="http://www.w3.org/2000/svg" viewBox="0 0 134.31 127"><g data-name="Layer 2"><path d="M2.5 109.82a2.51 2.51 0 0 1-2.26-3.57l38.08-81a2.5 2.5 0 0 1 4.76 1.23l-3.15 47.85L65 19a2.5 2.5 0 1 1 4.59 2L38.81 88.9A2.5 2.5 0 0 1 34 87.71l3.18-48.39-32.42 69.06a2.48 2.48 0 0 1-2.26 1.44zM70.48 78.57A12 12 0 0 1 61.27 74c-4.8-6-2.59-15.34 7.88-33.3a2.51 2.51 0 0 1 2.16-1.24 2.47 2.47 0 0 1 2.15 1.26c8.52 14.9 12 23.86 7.25 31.42-3.11 5-7 6.21-9.64 6.37zm.82-31.48c-9.06 16.41-8.09 21.37-6.13 23.82a7 7 0 0 0 5.63 2.65c2.16-.13 4.12-1.52 5.69-4 2.73-4.39 1.44-10.27-5.19-22.47z"/><path d="M70.57 93.48C64 93.48 57 91 50.58 84.81A2.5 2.5 0 0 1 54 81.19c7.75 7.43 20.83 11 31.26 1.47 8.38-7.7 11.46-22.12-.53-37-7.93-9.82-7.71-15.85-6.12-19.17a9.33 9.33 0 0 1 8.66-5 10 10 0 0 1 8.25 3.87A12.55 12.55 0 0 1 97.7 35.6a2.5 2.5 0 1 1-4.85-1.22 7.5 7.5 0 0 0-1.27-5.95 5.17 5.17 0 0 0-4.31-1.94c-.73 0-3.18.16-4.15 2.18-.59 1.33-1.34 5.33 5.54 13.88 6.31 7.81 9.42 16.32 9 24.6a27.81 27.81 0 0 1-9 19.19 27 27 0 0 1-18.09 7.14zM120.6 51.21c-.36-.83-9-20.49-13.92-28.63a2.5 2.5 0 0 0-4.68 1.17c-.79 17.35-3.15 27.81-3.18 27.91a2.5 2.5 0 1 0 4.88 1.12c0-.19.53-2.38 1.14-6.28H113c1.77 3.87 3 6.65 3 6.73a2.5 2.5 0 0 0 2.29 1.49 2.56 2.56 0 0 0 1-.21 2.5 2.5 0 0 0 1.31-3.3zm-15-9.71c.31-2.53.63-5.44.9-8.73 1.41 2.82 2.86 5.87 4.21 8.73z"/><path d="M72.13 114c-12.14 0-24-4.62-31.81-13A2.5 2.5 0 1 1 44 97.51c9.92 10.68 27.3 14.39 42.26 9 16.76-6 27.38-21.87 29.38-43.7h-13.53a2.5 2.5 0 0 1 0-5h16.2a2.5 2.5 0 0 1 1.82.79 2.47 2.47 0 0 1 .68 1.86c-1.49 25.29-13.47 43.79-32.88 50.76a46.93 46.93 0 0 1-15.8 2.78z"/><path d="M70.81 0A63.51 63.51 0 0 0 8.33 74.85a1.09 1.09 0 0 0 .07.24l4-8.51c-.06-1-.1-2-.1-3.08a58.48 58.48 0 1 1 6.8 27.39l-2.6 5.52A63.5 63.5 0 1 0 70.81 0z"/></g></svg>